Coordinates
version=1
nRows=24
nColumns=22
inDegrees=yes

Units are S.I. units (second, meters, Newtons, ...)
If the header above contains a line with 'inDegrees', this indicates whether rotational values are in degrees (yes) or radians (no).

endheader
time	pelvis_tilt	pelvis_list	pelvis_rotation	pelvis_tx	pelvis_ty	pelvis_tz	hip_flexion_r	hip_adduction_r	hip_rotation_r	knee_angle_r	ankle_angle_r	subtalar_angle_r	hip_flexion_l	hip_adduction_l	hip_rotation_l	knee_angle_l	ankle_angle_l	subtalar_angle_l	lumbar_extension	lumbar_bending	lumbar_rotation
      0.01000000	    -10.34119711	      4.21687199	    -30.95920995	     -1.08004340	      0.97497710	     -0.17691585	     20.14390915	      2.98777914	     -5.67801879	    -24.40148668	     19.85157273	     -8.05262237	     19.68233342	     -0.87230346	     -4.76215660	    -22.45307069	     20.78670294	     -4.61221056	      3.67701943	      1.64191755	      4.51877719
      0.02000000	    -10.35774856	      4.22288603	    -30.95739453	     -1.08013854	      0.97500397	     -0.17691491	     20.14341143	      2.99389861	     -5.68997746	    -24.35634496	     19.83293895	     -8.05652995	     19.66466898	     -0.88047020	     -4.78358713	    -22.37374332	     20.79182003	     -4.60711867	      3.71029474	      1.65125158	      4.53117717
      0.03000000	    -10.36624676	      4.23670011	    -30.97235620	     -1.08025826	      0.97506078	     -0.17690763	     20.13341455	      2.99757981	     -5.66529943	    -24.29506693	     19.77903672	     -8.06947343	     19.63448708	     -0.87914813	     -4.80673252	    -22.27839670	     20.75970039	     -4.59358966	      3.73757083	      1.65339280	      4.56569708
      0.04000000	    -10.37151126	      4.25121665	    -30.98150654	     -1.08036625	      0.97512321	     -0.17690749	     20.12025408	      2.99429107	     -5.65897717	    -24.23426970	     19.75003836	     -8.08336481	     19.60056616	     -0.87602459	     -4.84306707	    -22.18015012	     20.72838110	     -4.58217579	      3.76548089	      1.65279791	      4.59073990
      0.05000000	    -10.38655814	      4.26223052	    -30.97669173	     -1.08046795	      0.97516700	     -0.17692603	     20.11551354	      2.99302474	     -5.67938463	    -24.17812190	     19.74235374	     -8.08581054	     19.58181274	     -0.87880360	     -4.87650684	    -22.09400526	     20.71804676	     -4.57848335	      3.80251248	      1.66218092	      4.59499308
      0.06000000	    -10.40295046	      4.27725838	    -30.97383137	     -1.08056185	      0.97521967	     -0.17694836	     20.10757438	      2.99040152	     -5.69012449	    -24.10872859	     19.71982667	     -8.08706405	     19.56317689	     -0.87661708	     -4.90208545	    -22.00275710	     20.69363358	     -4.57297354	      3.84422662	      1.67101198	      4.60202717
      0.07000000	    -10.41650236	      4.29476161	    -30.97581979	     -1.08067275	      0.97528966	     -0.17697397	     20.09757340	      2.98956598	     -5.67434624	    -24.03501856	     19.66262811	     -8.09410491	     19.54139194	     -0.86857459	     -4.91192251	    -21.90712386	     20.63469635	     -4.56025922	      3.88054240	      1.67568182	      4.61258800
      0.08000000	    -10.43606233	      4.30667539	    -30.96605167	     -1.08075887	      0.97533313	     -0.17700768	     20.09270612	      2.98844580	     -5.69400652	    -23.97096591	     19.65113789	     -8.09670205	     19.52965587	     -0.87008009	     -4.94046762	    -21.82543936	     20.62041879	     -4.55594824	      3.92200303	      1.68960717	      4.60835930
      0.09000000	    -10.46392769	      4.32036755	    -30.95725602	     -1.08085307	      0.97538234	     -0.17704680	     20.08970906	      2.99462138	     -5.69237758	    -23.89123901	     19.59890658	     -8.10520476	     19.52461142	     -0.86955761	     -4.93723237	    -21.73946634	     20.56849742	     -4.54322811	      3.97095101	      1.70715153	      4.59979773
      0.10000000	    -10.49679716	      4.33169504	    -30.94372511	     -1.08093296	      0.97541536	     -0.17709523	     20.09140148	      3.00221817	     -5.70520131	    -23.81600780	     19.56167333	     -8.11656967	     19.52744967	     -0.87335982	     -4.94136381	    -21.66163580	     20.53425848	     -4.53234022	      4.02321043	      1.73098512	      4.58402040
      0.11000000	    -10.52225890	      4.34193517	    -30.93441750	     -1.08098781	      0.97544468	     -0.17713657	     20.09023362	      3.00413234	     -5.72628106	    -23.75306641	     19.55052252	     -8.12004447	     19.52253955	     -0.87731331	     -4.96474619	    -21.58711137	     20.52177184	     -4.52832961	      4.06911139	      1.75421253	      4.56898384
      0.12000000	    -10.56663375	      4.34913507	    -30.91976364	     -1.08106052	      0.97546309	     -0.17718605	     20.09531107	      3.02331727	     -5.72864913	    -23.66842617	     19.49144048	     -8.13331019	     19.54063496	     -0.88896026	     -4.94758716	    -21.52334552	     20.47270701	     -4.51602066	      4.12786515	      1.78915720	      4.54486721
      0.13000000	    -10.59100221	      4.35941263	    -30.91822098	     -1.08109207	      0.97548383	     -0.17722010	     20.09237313	      3.02489693	     -5.75090750	    -23.60595721	     19.48282502	     -8.13795829	     19.53997893	     -0.89315857	     -4.97179395	    -21.46318064	     20.46539469	     -4.51308884	      4.17199446	      1.81443472	      4.52783840
      0.14000000	    -10.63723817	      4.36150344	    -30.90906611	     -1.08114677	      0.97549538	     -0.17725641	     20.09496677	      3.05160653	     -5.74856750	    -23.52047738	     19.42506096	     -8.15616385	     19.56461090	     -0.91295707	     -4.96066809	    -21.41718534	     20.42563155	     -4.50264183	      4.22857394	      1.85666650	      4.50165794
      0.15000000	    -10.66124858	      4.37169224	    -30.91181225	     -1.08117297	      0.97551327	     -0.17727385	     20.09036897	      3.05577718	     -5.76595127	    -23.45571407	     19.41465104	     -8.16373519	     19.56886703	     -0.91888390	     -4.98353848	    -21.36893105	     20.42034023	     -4.49989947	      4.26881200	      1.87836171	      4.48397686
      0.16000000	    -10.69876777	      4.37446261	    -30.91487255	     -1.08119904	      0.97552610	     -0.17730564	     20.08790546	      3.07896622	     -5.75373209	    -23.37758285	     19.36524139	     -8.18597169	     19.58849619	     -0.93555677	     -4.98191079	    -21.33488480	     20.38997437	     -4.49161663	      4.31739601	      1.92068189	      4.46093922
      0.17000000	    -10.71639099	      4.38673123	    -30.92375183	     -1.08119572	      0.97554562	     -0.17732762	     20.08035784	      3.07814174	     -5.76387619	    -23.31887443	     19.35787396	     -8.19245800	     19.58848269	     -0.93549833	     -5.00492242	    -21.29288870	     20.38622642	     -4.48983937	      4.35346731	      1.94119576	      4.44202492
      0.18000000	    -10.73931562	      4.39754484	    -30.93104304	     -1.08121307	      0.97556740	     -0.17734989	     20.07447942	      3.08613708	     -5.75405376	    -23.25147952	     19.33540441	     -8.20202357	     19.59147352	     -0.93962252	     -5.01926675	    -21.24659118	     20.36819182	     -4.48630766	      4.38783996	      1.96299160	      4.41922174
      0.19000000	    -10.75804339	      4.40889068	    -30.94407560	     -1.08120620	      0.97558765	     -0.17738150	     20.06812844	      3.08986329	     -5.74427029	    -23.19264742	     19.31582545	     -8.21033679	     19.58988944	     -0.93947413	     -5.03451548	    -21.20351722	     20.35246981	     -4.48333343	      4.42200565	      1.98850520	      4.39636739
      0.20000000	    -10.77970136	      4.41954869	    -30.95510466	     -1.08122443	      0.97560496	     -0.17740536	     20.06429087	      3.09826461	     -5.72728921	    -23.13213686	     19.29103504	     -8.22149705	     19.58956874	     -0.94350772	     -5.05017606	    -21.15463936	     20.33318075	     -4.47978194	      4.45141760	      2.00988193	      4.37546452
      0.21000000	    -10.79907839	      4.43013817	    -30.97066510	     -1.08122879	      0.97561898	     -0.17742942	     20.06125068	      3.10473502	     -5.71304120	    -23.07748501	     19.26945504	     -8.23288162	     19.58450127	     -0.94577492	     -5.06985599	    -21.10532429	     20.31719331	     -4.47670256	      4.48024628	      2.03334640	      4.35681765
      0.22000000	    -10.81742441	      4.44023846	    -30.98935851	     -1.08122628	      0.97563091	     -0.17743808	     20.05754117	      3.11096655	     -5.70161193	    -23.02570514	     19.24968859	     -8.24364701	     19.57493014	     -0.94924718	     -5.09387239	    -21.05192617	     20.30309978	     -4.47419259	      4.50903384	      2.05603584	      4.34080932
      0.23000000	    -10.83406798	      4.44907916	    -31.01095922	     -1.08122102	      0.97564271	     -0.17743067	     20.05320483	      3.11768553	     -5.69337929	    -22.97746702	     19.23039220	     -8.25366246	     19.56076621	     -0.95425386	     -5.12109770	    -20.99659100	     20.29042830	     -4.47235892	      4.53583416	      2.07806783	      4.32945652
      0.24000000	    -10.84810506	      4.45675392	    -31.03584365	     -1.08120179	      0.97565377	     -0.17741295	     20.04783763	      3.12252478	     -5.69218678	    -22.93550840	     19.21444743	     -8.26108018	     19.54212243	     -0.95915393	     -5.15000200	    -20.94123858	     20.28086963	     -4.47130858	      4.56258154	      2.10172230	      4.31969755
